<?xml version="1.0" encoding="utf-8"?>
<!-- Generator: Adobe Illustrator 22.0.0, SVG Export Plug-In . SVG Version: 6.00 Build 0)  -->
<svg version="1.1"
	 id="svg8" inkscape:version="0.92.2 5c3e80d, 2017-08-06" sodipodi:docname="calliope_structure.svg" xmlns:cc="http://creativecommons.org/ns#" xmlns:dc="http://purl.org/dc/elements/1.1/" xmlns:inkscape="http://www.inkscape.org/namespaces/inkscape" xmlns:rdf="http://www.w3.org/1999/02/22-rdf-syntax-ns#" xmlns:sodipodi="http://sodipodi.sourceforge.net/DTD/sodipodi-0.dtd" xmlns:svg="http://www.w3.org/2000/svg"
	 xmlns="http://www.w3.org/2000/svg" xmlns:xlink="http://www.w3.org/1999/xlink" x="0px" y="0px" viewBox="0 0 585.8 296.5"
	 style="enable-background:new 0 0 585.8 296.5;" xml:space="preserve">
<style type="text/css">
	.st0{fill:#A4A4A4;fill-opacity:0.3907;}
	.st1{fill:#B769FF;fill-opacity:0.5725;}
	.st2{fill:#69AEFF;fill-opacity:0.5725;}
	.st3{fill:#F6EA37;fill-opacity:0.5725;}
	.st4{fill:#F9F180;fill-opacity:0.5725;}
	.st5{fill:#FF5B77;fill-opacity:0.5725;}
	.st6{font-family:'OpenSans-Regular';}
	.st7{font-size:10px;}
	.st8{font-family:'OpenSans-SemiBold';}
	.st9{font-size:12px;}
	.st10{fill:none;stroke:#3A3A3A;stroke-linejoin:round;}
	.st11{font-size:24px;}
	.st12{font-size:16px;}
	.st13{fill:none;stroke:#3A3A3A;stroke-width:0.5;stroke-linejoin:round;}
	.st14{font-size:13px;}
	.st15{font-family:'OpenSans-Italic';}
	.st16{fill:none;}
	.st17{stroke:#000000;stroke-width:0.625;stroke-linejoin:round;}
	.st18{fill:none;stroke:#3A3A3A;stroke-width:0.5;stroke-dasharray:1.5,1.5;}
	.st19{fill:#9EF982;fill-opacity:0.5725;stroke:#3A3A3A;stroke-width:0.3;stroke-linejoin:round;}
	.st20{fill:#69AFFF;fill-opacity:0.5725;stroke:#3A3A3A;stroke-width:0.3;stroke-linejoin:round;}
	.st21{fill:#FF5B77;fill-opacity:0.5725;stroke:#3A3A3A;stroke-width:0.3;stroke-linejoin:round;}
	.st22{fill:none;stroke:#3A3A3A;stroke-width:0.3;stroke-linejoin:round;stroke-dasharray:1.2,1.2;}
	.st23{enable-background:new    ;}
	.st24{fill:none;stroke:#000000;stroke-linejoin:round;}
</style>
<sodipodi:namedview  bordercolor="#666666" borderopacity="1.0" fit-margin-bottom="0" fit-margin-left="0" fit-margin-right="0" fit-margin-top="0" id="base" inkscape:bbox-nodes="true" inkscape:bbox-paths="true" inkscape:current-layer="layer1" inkscape:cx="-692.25025" inkscape:cy="-15.311969" inkscape:document-units="mm" inkscape:pageopacity="0.0" inkscape:pageshadow="2" inkscape:snap-bbox="false" inkscape:snap-bbox-edge-midpoints="true" inkscape:snap-intersection-paths="true" inkscape:snap-midpoints="true" inkscape:snap-object-midpoints="true" inkscape:snap-smooth-nodes="true" inkscape:window-height="855" inkscape:window-maximized="1" inkscape:window-width="1440" inkscape:window-x="0" inkscape:window-y="1" inkscape:zoom="0.7" pagecolor="#ffffff" showgrid="false">
	</sodipodi:namedview>
<path id="path12843-3" inkscape:connector-curvature="0" inkscape:export-xdpi="400" inkscape:export-ydpi="400" sodipodi:nodetypes="cccccc" class="st0" d="
	M297.5,191.8l-3.2-33.8l40.2-0.1l34.1,21.9l-21,26.7L297.5,191.8"/>
<path id="path8283" inkscape:connector-curvature="0" inkscape:export-xdpi="400" inkscape:export-ydpi="400" sodipodi:nodetypes="ccccc" class="st1" d="
	M152.4,275.1L5.1,274.7l68.4-149.9L186,201.7L152.4,275.1z"/>
<path id="path8285" inkscape:connector-curvature="0" inkscape:export-xdpi="400" inkscape:export-ydpi="400" sodipodi:nodetypes="ccccc" class="st2" d="
	M253.9,158L211.9,35.7L73.5,124.8L186,201.7L253.9,158z"/>
<path id="path8287" inkscape:connector-curvature="0" inkscape:export-xdpi="400" inkscape:export-ydpi="400" sodipodi:nodetypes="ccccc" class="st3" d="
	M253.9,158L211.9,35.7h164.6L334.6,158H253.9z"/>
<path id="path8304" inkscape:connector-curvature="0" inkscape:export-xdpi="400" inkscape:export-ydpi="400" sodipodi:nodetypes="ccccc" class="st4" d="
	M334.6,158l41.9-122.4L515,124.8l-112.5,76.9L334.6,158z"/>
<path id="path8306" inkscape:connector-curvature="0" inkscape:export-xdpi="400" inkscape:export-ydpi="400" sodipodi:nodetypes="ccccc" class="st5" d="
	M436,275.1l147.4-0.5L515,124.8l-112.5,76.9L436,275.1z"/>
<text transform="matrix(0.4153 -0.9097 0.9097 0.4153 18.6726 222.3208)" class="st6 st7">core/preprocess</text>
<text transform="matrix(0.8412 0.5407 -0.5407 0.8412 407.9417 78.086)" class="st8 st9">model.py</text>
<text transform="matrix(0.8412 0.5407 -0.5407 0.8412 395.3253 96.1061)" class="st6 st7">variables.py</text>
<text transform="matrix(0.8412 0.5407 -0.5407 0.8412 379.8644 120.4683)" class="st6 st7">objective.py</text>
<text transform="matrix(0.8412 0.5407 -0.5407 0.8412 390.5602 109.6718)" class="st6 st7">constraints/...</text>
<polygon id="path7499" class="st10" points="-428.5,357.5 -428.5,357.5 -428.5,357.5 -428.5,357.5 "/>
<polygon id="path7499-6" class="st10" points="-428.5,357.5 -428.5,357.5 -428.5,357.5 -428.5,357.5 "/>
<path id="path8244" inkscape:connector-curvature="0" inkscape:export-xdpi="400" inkscape:export-ydpi="400" inkscape:transform-center-x="9.3478236e-006" inkscape:transform-center-y="2.0896166" sodipodi:nodetypes="cccccc" class="st10" d="
	M5.1,274.7l68.4-149.9l138.5-89.1h164.6L515,124.8l68.4,149.9"/>
<path id="path8244-8" inkscape:connector-curvature="0" inkscape:export-xdpi="400" inkscape:export-ydpi="400" inkscape:transform-center-y="1.0235523" sodipodi:nodetypes="cccccc" class="st10" d="
	M152.4,275.1l33.5-73.4l67.9-43.6h80.7l67.9,43.6l33.5,73.4"/>
<text transform="matrix(1 0 0 1 258.8703 273.9035)" class="st8 st11">Model</text>
<text transform="matrix(1 0 0 1 19.5451 294.7941)" class="st8 st12">Model definition</text>
<text transform="matrix(1 0 0 1 459.7522 294.7511)" class="st8 st12">Model results</text>
<path id="path8244-8-9" inkscape:connector-curvature="0" inkscape:export-xdpi="400" inkscape:export-ydpi="400" inkscape:transform-center-x="2.8311332e-005" inkscape:transform-center-y="1.4047103" sodipodi:nodetypes="cccccc" class="st13" d="
	M100.8,275.8l45.9-100.8l92.9-59.9H350l92.9,59.9l45.9,100.8"/>
<text transform="matrix(0.4153 -0.9097 0.9097 0.4153 125.1685 258.9887)" class="st8 st14">model_run</text>
<text transform="matrix(0.4153 -0.9097 0.9097 0.4153 137.0261 270.0107)" class="st15 st7">Python dictionary</text>
<text transform="matrix(0.8412 -0.5407 0.5407 0.8412 170.258 178.9149)" class="st8 st14">model_data</text>
<text transform="matrix(0.8412 -0.5407 0.5407 0.8412 182.5495 189.2789)" class="st15 st7">xarray dataset</text>
<text transform="matrix(0.9595 0.2818 -0.2818 0.9595 293.2595 125.7385)" class="st8 st14">backend_model</text>
<text transform="matrix(0.9595 0.2818 -0.2818 0.9595 307.6352 145.9719)" class="st15 st7">pyomo object</text>
<text transform="matrix(0.4153 0.9097 -0.9097 0.4153 433.8215 198.6765)" class="st8 st14">model_data</text>
<text transform="matrix(0.4153 0.9097 -0.9097 0.4153 421.8123 209.364)" class="st15 st7">xarray dataset</text>
<text transform="matrix(0.4153 -0.9097 0.9097 0.4153 43.547 244.6686)" class="st8 st9">model_run.py</text>
<text transform="matrix(0.4153 -0.9097 0.9097 0.4153 68.4635 243.0184)" class="st6 st7">locations.py</text>
<text transform="matrix(0.4153 -0.9097 0.9097 0.4153 88.8881 267.7574)" class="st6 st7">constraint_sets.py</text>
<text transform="matrix(0.4153 -0.9097 0.9097 0.4153 71.6358 269.7528)" class="st6 st7">sets.py, checks.py, util.py</text>
<text transform="matrix(0.8412 -0.5407 0.5407 0.8412 120.5352 126.3299)" class="st8 st9">model_data.py</text>
<text transform="matrix(0.8412 -0.5407 0.5407 0.8412 148.9025 134.2266)" class="st6 st7">lookup.py</text>
<text transform="matrix(0.8412 -0.5407 0.5407 0.8412 132.041 161.6935)" class="st6 st7">time.py, checks.py, util.py</text>
<text transform="matrix(1 0 0 1 273.1643 58.6203)" class="st8 st9">run.py</text>
<text transform="matrix(1 0 0 1 269.4758 80.6007)" class="st6 st7">checks.py</text>
<text transform="matrix(1 0 0 1 264.5149 95.6007)" class="st6 st7">interface.py</text>
<path class="st16" d=""/>
<path id="path9947" inkscape:connector-curvature="0" inkscape:export-xdpi="400" inkscape:export-ydpi="400" class="st17" d="
	M-2883.4,1586.7"/>
<path class="st16" d=""/>
<path id="path9947-8" inkscape:connector-curvature="0" inkscape:export-xdpi="400" inkscape:export-ydpi="400" class="st17" d="
	M-2510.6,1811.9"/>
<path class="st16" d=""/>
<path id="path9947-8-7" inkscape:connector-curvature="0" inkscape:export-xdpi="400" inkscape:export-ydpi="400" class="st17" d="
	M-2105.4,1696.9"/>
<path class="st16" d=""/>
<path id="path9947-8-8" inkscape:connector-curvature="0" inkscape:export-xdpi="400" inkscape:export-ydpi="400" class="st17" d="
	M-1723.1,1525.7"/>
<text transform="matrix(0.8412 -0.5407 0.5407 0.8412 103.7498 93.8815)" class="st6 st7">core/preprocess</text>
<text transform="matrix(0.8412 0.5407 -0.5407 0.8412 424.2466 54.3522)" class="st6 st7">backend/pyomo</text>
<text transform="matrix(0.4153 0.9097 -0.9097 0.4153 493.9604 171.819)" class="st8 st9">postprocess.py</text>
<text transform="matrix(0.4153 0.9097 -0.9097 0.4153 486.1474 207.6297)" class="st6 st7">util.py</text>
<text transform="matrix(0.4153 0.9097 -0.9097 0.4153 554.3718 186.4193)" class="st6 st7">analysis</text>
<text transform="matrix(1 0 0 1 281.1477 28.6867)" class="st6 st7">backend</text>
<path id="path239" inkscape:connector-curvature="0" inkscape:export-xdpi="400" inkscape:export-ydpi="400" inkscape:transform-center-x="0.98722798" inkscape:transform-center-y="1.1948527" d="
	M266.5,29.2c0-0.1-0.4-1.6-0.9-3.5c-0.5-1.9-0.9-3.4-0.9-3.4c0,0,0.3,0,5.3,0h5.3l0,0.1c0,0,0.3,1.2,0.6,2.5
	c0.3,1.3,0.6,2.4,0.6,2.4c0,0,0.3-1.3,0.6-2.9c0.3-1.6,0.6-2.9,0.6-2.9l0-0.1h-5.2h-5.2v-0.4v-0.4h3.5h3.5l0-0.1
	c0-0.2,0.2-0.4,0.3-0.5c0,0,0.1-0.1,0.2-0.1l0.1-0.1h1.6h1.6l0.1,0.1c0.1,0,0.2,0.1,0.2,0.1c0.1,0.1,0.2,0.4,0.3,0.5
	c0,0.1-0.2,1.2-0.9,4.5c-0.5,2.4-0.9,4.4-0.9,4.4c0,0-2.4,0-5.3,0h-5.3L266.5,29.2z"/>
<text transform="matrix(0.9595 0.2818 -0.2818 0.9595 304.1056 181.7614)" class="st8 st12">Solver</text>
<path id="path13833" inkscape:connector-curvature="0" inkscape:export-xdpi="400" inkscape:export-ydpi="400" sodipodi:nodetypes="cc" class="st18" d="
	M253.9,158L206.2,19"/>
<text transform="matrix(1 0 0 1 158.01 16.3175)" class="st8 st12">Model input</text>
<ellipse id="path14752" class="st19" cx="1053.9" cy="191" rx="33.1" ry="33"/>
<ellipse id="path14752-9" class="st20" cx="1236.4" cy="191" rx="45.2" ry="45.1"/>
<ellipse id="path14752-9-0" class="st21" cx="1439.3" cy="191" rx="53.5" ry="53.4"/>
<ellipse id="path14752-0" class="st22" cx="892.6" cy="191" rx="23.9" ry="23.8"/>
<path class="st16" d=""/>
<path id="path16401" inkscape:connector-curvature="0" class="st17" d="M1005.9,184.1l18.6,6.8l-18.6,6.8
	C1008.9,193.7,1008.9,188.2,1005.9,184.1z"/>
<path id="path16235" inkscape:connector-curvature="0" class="st17" d="M1020.8,191"/>
<path class="st16" d=""/>
<path id="path8976" inkscape:connector-curvature="0" class="st17" d="M1176.3,184.1l18.6,6.8l-18.6,6.8
	C1179.3,193.7,1179.3,188.2,1176.3,184.1z"/>
<path id="path16237" inkscape:connector-curvature="0" class="st17" d="M1191.2,191"/>
<path class="st16" d=""/>
<path id="path16253" inkscape:connector-curvature="0" class="st17" d="M1371,184.1l18.6,6.8l-18.6,6.8
	C1373.9,193.7,1373.9,188.2,1371,184.1z"/>
<path id="path16239" inkscape:connector-curvature="0" class="st17" d="M1385.8,191"/>
<text transform="matrix(1 0 0 1 1308.8596 183.4757)" class="st8" style="font-size:20px;">run</text>
<text transform="matrix(1 0 0 1 1116.5745 183.3878)" class="st8" style="font-size:20px;">init</text>
<text transform="matrix(1 0 0 1 1088.9573 205.964)" class="st6 st7">from_model_yaml </text>
<text transform="matrix(1 0 0 1 1089.7825 218.464)" class="st6 st7">from_model_data</text>
<text transform="matrix(1 0 0 1 1103.1565 230.964)" class="st6 st7">read_netcdf</text>
<text transform="matrix(1 0 0 1 1184.4915 275.1203)" class="st6 st7">plot</text>
<text transform="matrix(1 0 0 1 1146.0637 287.6203)" class="st6 st7">get_formatted_array</text>
<text transform="matrix(1 0 0 1 1184.5569 300.1203)" class="st6 st7">info</text>
<text transform="matrix(1 0 0 1 1256.9426 274.8673)" class="st6 st7">to_netcdf</text>
<text transform="matrix(1 0 0 1 1264.4495 287.3673)" class="st6 st7">to_csv</text>
<path class="st16" d=""/>
<path id="path16253-7-9-0-0" inkscape:connector-curvature="0" class="st17" d="M1391.4,248.7l-18,8.3l8.3-18
	C1382.5,244,1386.4,247.8,1391.4,248.7z"/>
<path id="path16239-1-90-6-6" inkscape:connector-curvature="0" class="st17" d="M1376.1,254.3"/>
<text transform="matrix(1 0 0 1 1364.0022 268.1281)" class="st6 st7">plot</text>
<text transform="matrix(1 0 0 1 1325.5745 280.6281)" class="st6 st7">get_formatted_array</text>
<text transform="matrix(1 0 0 1 1364.0686 293.1281)" class="st6 st7">info</text>
<path class="st16" d=""/>
<path id="path16253-7-9-0-33-3" inkscape:connector-curvature="0" class="st17" d="M1497,239l8.3,18l-18-8.3
	C1492.3,247.9,1496.1,244,1497,239z"/>
<path id="path16239-1-90-6-7-6" inkscape:connector-curvature="0" class="st17" d="M1502.6,254.3"/>
<text transform="matrix(1 0 0 1 1483.1145 268.1818)" class="st6 st7">to_netcdf</text>
<text transform="matrix(1 0 0 1 1490.6213 280.6818)" class="st6 st7">to_csv</text>
<path class="st16" d=""/>
<path id="path16253-7-9-0-33-34" inkscape:connector-curvature="0" class="st17" d="M1446.2,265.6l-6.8,18.6l-6.8-18.6
	C1436.6,268.5,1442.1,268.5,1446.2,265.6z"/>
<path id="path16239-1-90-6-7-0" inkscape:connector-curvature="0" class="st17" d="M1439.3,280.4"/>
<text transform="matrix(1 0 0 1 1419.5735 295.4601)" class="st6 st7">backend</text>
<path class="st16" d=""/>
<path id="path16253-7-9-0-0-3" inkscape:connector-curvature="0" class="st17" d="M1209.1,251.8l-15.2,12.7l3.4-19.5
	C1199.3,249.6,1204.1,252.3,1209.1,251.8z"/>
<path id="path16239-1-90-6-6-8" inkscape:connector-curvature="0" class="st17" d="M1195.8,261.3"/>
<path class="st16" d=""/>
<path id="path16253-7-9-0-0-3-6" inkscape:connector-curvature="0" class="st17" d="M1275.5,245l3.4,19.5l-15.2-12.7
	C1268.6,252.4,1273.4,249.6,1275.5,245z"/>
<path id="path16239-1-90-6-6-8-6" inkscape:connector-curvature="0" class="st17" d="M1276.9,261.3"/>
<text transform="matrix(1 0 0 1 1107.3577 103.6711)" class="st8" style="font-size:21.847px;">The Model object</text>
<path id="path330" inkscape:connector-curvature="0" inkscape:export-xdpi="400" inkscape:export-ydpi="400" inkscape:transform-center-x="-0.90446819" inkscape:transform-center-y="1.1443993" d="
	M13.3,235.1c-0.1,0-1.7-0.3-3.6-0.6c-1.9-0.3-3.5-0.6-3.5-0.6c0,0,0.1-0.3,2.1-4.9l2.1-4.9l0.1,0c0,0,1.2,0.2,2.6,0.4
	c1.4,0.2,2.5,0.4,2.5,0.4c0,0-1.1-0.8-2.4-1.7c-1.3-0.9-2.4-1.7-2.5-1.7l-0.1,0l-2.1,4.8l-2.1,4.8L6,230.9l-0.4-0.2l1.4-3.2l1.4-3.2
	l-0.1-0.1c-0.1-0.1-0.3-0.3-0.4-0.5c0-0.1,0-0.2,0-0.3l0-0.2l0.6-1.4l0.6-1.4l0.1-0.1c0.1-0.1,0.2-0.1,0.2-0.1
	c0.1-0.1,0.4-0.1,0.6,0c0.1,0,1,0.6,3.8,2.6c2,1.4,3.7,2.6,3.7,2.6c0,0-0.9,2.2-2.1,4.9l-2.1,4.9L13.3,235.1z"/>
<path id="path332" inkscape:connector-curvature="0" inkscape:export-xdpi="400" inkscape:export-ydpi="400" inkscape:transform-center-x="0.19461461" inkscape:transform-center-y="1.4277131" d="
	M92.2,101.1c0,0-1.2-1.2-2.6-2.5c-1.4-1.3-2.6-2.4-2.6-2.4c0,0,0.2-0.2,4.4-2.9l4.5-2.9l0.1,0.1c0,0,0.9,0.8,1.9,1.8
	c1,1,1.8,1.7,1.8,1.7c0,0-0.5-1.3-1.1-2.8c-0.6-1.5-1.1-2.8-1.1-2.8l0-0.1l-4.4,2.8L88.7,94l-0.2-0.4l-0.2-0.4l3-1.9l3-1.9l-0.1-0.1
	c-0.1-0.2-0.1-0.5-0.1-0.6c0-0.1,0.1-0.2,0.1-0.2l0.1-0.1l1.3-0.8l1.3-0.8l0.2,0c0.1,0,0.2,0,0.3,0c0.1,0,0.4,0.2,0.5,0.3
	c0.1,0.1,0.5,1.1,1.7,4.3c0.9,2.3,1.6,4.2,1.6,4.2c0,0-2,1.3-4.5,2.9L92.2,101.1L92.2,101.1z"/>
<path id="path336" inkscape:connector-curvature="0" inkscape:export-xdpi="400" inkscape:export-ydpi="400" inkscape:transform-center-x="1.4215463" inkscape:transform-center-y="-0.40982481" d="
	M548.1,173.3c0,0,1.3-1.1,2.7-2.4c1.5-1.3,2.7-2.3,2.7-2.3c0,0,0.2,0.2,2.4,4.7l2.4,4.8l-0.1,0.1c0,0-0.9,0.8-2,1.7
	c-1.1,0.9-1.9,1.6-1.9,1.6c0,0,1.3-0.4,2.9-0.8c1.6-0.4,2.8-0.8,2.9-0.8l0.1,0l-2.3-4.7l-2.3-4.7l0.4-0.2l0.4-0.2l1.6,3.2l1.6,3.2
	l0.1,0c0.2-0.1,0.5,0,0.6,0c0.1,0,0.2,0.1,0.2,0.1l0.1,0.1l0.7,1.4l0.7,1.4l0,0.2c0,0.1,0,0.2,0,0.3c0,0.1-0.2,0.4-0.3,0.5
	c-0.1,0-1.1,0.3-4.5,1.3c-2.4,0.7-4.4,1.2-4.4,1.2c0,0-1.1-2.1-2.4-4.7L548.1,173.3L548.1,173.3z"/>
<path id="path338" inkscape:connector-curvature="0" inkscape:export-xdpi="400" inkscape:export-ydpi="400" inkscape:transform-center-x="1.2596458" inkscape:transform-center-y="0.71024607" d="
	M411.7,47c0-0.1,0.5-1.6,1.1-3.4c0.6-1.8,1.1-3.4,1.1-3.4c0,0,0.2,0.1,4.5,2.7l4.5,2.8l0,0.1c0,0-0.4,1.2-0.8,2.5s-0.7,2.4-0.7,2.4
	c0,0,0.9-1,2-2.2c1.1-1.2,2-2.2,2-2.2l0,0l-4.4-2.7l-4.4-2.7l0.2-0.4l0.2-0.4l3,1.9l3,1.9l0.1-0.1c0.1-0.1,0.4-0.3,0.5-0.3
	c0.1,0,0.2,0,0.3,0l0.2,0l1.3,0.8l1.3,0.8l0.1,0.1c0,0.1,0.1,0.2,0.1,0.2c0,0.1,0,0.4,0,0.6c0,0.1-0.8,0.9-3.1,3.4
	c-1.7,1.8-3.1,3.3-3.1,3.3c0,0-2-1.3-4.5-2.8l-4.5-2.8L411.7,47z"/>
<path id="path338_1_" inkscape:connector-curvature="0" inkscape:export-xdpi="400" inkscape:export-ydpi="400" inkscape:transform-center-x="1.2596458" inkscape:transform-center-y="0.71024607" d="
	M381.5,104.2c0,0,0.4-1.2,0.8-2.6c0.4-1.4,0.8-2.5,0.8-2.5c0,0,0.2,0.1,3.4,2.1l3.4,2.1l0,0.1c0,0-0.3,0.9-0.6,1.9
	c-0.3,1-0.6,1.8-0.5,1.8c0,0,0.7-0.7,1.5-1.6c0.8-0.9,1.5-1.6,1.5-1.6l0,0l-3.3-2.1l-3.3-2.1l0.2-0.3l0.2-0.3l2.3,1.4l2.3,1.4
	l0.1-0.1c0.1-0.1,0.3-0.2,0.4-0.2c0,0,0.1,0,0.2,0l0.1,0l1,0.6l1,0.6l0.1,0.1c0,0.1,0.1,0.1,0.1,0.2c0,0.1,0,0.3,0,0.4
	c0,0.1-0.6,0.7-2.3,2.6c-1.3,1.4-2.3,2.5-2.3,2.5c0,0-1.5-0.9-3.4-2.1L381.5,104.2L381.5,104.2z"/>
<g>
	<g>
		<line class="st24" x1="97.4" y1="130.7" x2="84.4" y2="149.7"/>
		<g>
			<polygon points="92.8,130.9 96.7,131.7 98.9,135.1 100.8,125.7 			"/>
		</g>
	</g>
</g>
<g>
	<g>
		<line class="st24" x1="225.4" y1="48" x2="204" y2="56.8"/>
		<g>
			<polygon points="221.4,45.6 224.2,48.4 224.2,52.5 230.9,45.7 			"/>
		</g>
	</g>
</g>
<g>
	<g>
		<line class="st24" x1="352.2" y1="79.8" x2="368.4" y2="85.4"/>
		<g>
			<polygon points="353.6,84.2 353.3,80.2 356,77.2 346.5,77.9 			"/>
		</g>
		<g>
			<polygon points="364.5,88 367.2,85 366.9,81 374,87.3 			"/>
		</g>
	</g>
</g>
<g>
	<g>
		<line class="st24" x1="491.5" y1="123.2" x2="504.5" y2="142.3"/>
		<g>
			<polygon points="499.9,142 503.8,141.2 506,137.8 507.9,147.2 			"/>
		</g>
	</g>
</g>
</svg>
